
<svg width="1024" height="1024" viewBox="0 0 1024 1024" xmlns="http://www.w3.org/2000/svg" fill="none">
  <circle cx="512" cy="512" r="400" stroke="#00A67E" stroke-width="80" fill="none"/>
  <path d="M512 100 C600 100, 700 200, 700 300 Q700 400, 600 450 C500 500, 400 500, 300 450 Q200 400, 200 300 C200 200, 300 100, 400 100 Z" fill="#00A67E" />
  <path d="M512 924 C424 924, 324 824, 324 724 Q324 624, 424 574 C524 524, 624 524, 724 574 Q824 624, 824 724 C824 824, 724 924, 624 924 Z" fill="#00A67E" />
</svg>
